0
SECTION
2
HEADER
9
$INSUNITS
70
4
0
ENDSEC
0
SECTION
2
TABLES
0
TABLE
2
LTYPE
0
LTYPE
72
65
70
64
2
CONTINUOUS
3
______
73
0
40
0
0
ENDTAB
0
TABLE
2
LAYER
0
ENDTAB
0
ENDSEC
0
SECTION
2
ENTITIES
0
LINE
8
0
10
-9
20
9
11
9
21
9
0
LINE
8
0
10
9
20
9
11
9
21
-9
0
LINE
8
0
10
9
20
-9
11
-9
21
-9
0
LINE
8
0
10
-9
20
-9
11
-9
21
9
0
LINE
8
0
10
-9
20
28
11
9
21
28
0
LINE
8
0
10
9
20
28
11
9
21
10
0
LINE
8
0
10
9
20
10
11
-9
21
10
0
LINE
8
0
10
-9
20
10
11
-9
21
28
0
LINE
8
0
10
-9
20
47
11
9
21
47
0
LINE
8
0
10
9
20
47
11
9
21
29
0
LINE
8
0
10
9
20
29
11
-9
21
29
0
LINE
8
0
10
-9
20
29
11
-9
21
47
0
LINE
8
0
10
10
20
9
11
28
21
9
0
LINE
8
0
10
28
20
9
11
28
21
-9
0
LINE
8
0
10
28
20
-9
11
10
21
-9
0
LINE
8
0
10
10
20
-9
11
10
21
9
0
LINE
8
0
10
10
20
28
11
28
21
28
0
LINE
8
0
10
28
20
28
11
28
21
10
0
LINE
8
0
10
28
20
10
11
10
21
10
0
LINE
8
0
10
10
20
10
11
10
21
28
0
LINE
8
0
10
10
20
47
11
28
21
47
0
LINE
8
0
10
28
20
47
11
28
21
29
0
LINE
8
0
10
28
20
29
11
10
21
29
0
LINE
8
0
10
10
20
29
11
10
21
47
0
LINE
8
0
10
29
20
27
11
47
21
27
0
LINE
8
0
10
47
20
27
11
47
21
9
0
LINE
8
0
10
47
20
9
11
29
21
9
0
LINE
8
0
10
29
20
9
11
29
21
27
0
LINE
8
0
10
29
20
46
11
47
21
46
0
LINE
8
0
10
47
20
46
11
47
21
28
0
LINE
8
0
10
47
20
28
11
29
21
28
0
LINE
8
0
10
29
20
28
11
29
21
46
0
LINE
8
0
10
29
20
65
11
47
21
65
0
LINE
8
0
10
47
20
65
11
47
21
47
0
LINE
8
0
10
47
20
47
11
29
21
47
0
LINE
8
0
10
29
20
47
11
29
21
65
0
LINE
8
0
10
48
20
32
11
66
21
32
0
LINE
8
0
10
66
20
32
11
66
21
14
0
LINE
8
0
10
66
20
14
11
48
21
14
0
LINE
8
0
10
48
20
14
11
48
21
32
0
LINE
8
0
10
48
20
51
11
66
21
51
0
LINE
8
0
10
66
20
51
11
66
21
33
0
LINE
8
0
10
66
20
33
11
48
21
33
0
LINE
8
0
10
48
20
33
11
48
21
51
0
LINE
8
0
10
48
20
70
11
66
21
70
0
LINE
8
0
10
66
20
70
11
66
21
52
0
LINE
8
0
10
66
20
52
11
48
21
52
0
LINE
8
0
10
48
20
52
11
48
21
70
0
LINE
8
0
10
67
20
26
11
85
21
26
0
LINE
8
0
10
85
20
26
11
85
21
8
0
LINE
8
0
10
85
20
8
11
67
21
8
0
LINE
8
0
10
67
20
8
11
67
21
26
0
LINE
8
0
10
67
20
45
11
85
21
45
0
LINE
8
0
10
85
20
45
11
85
21
27
0
LINE
8
0
10
85
20
27
11
67
21
27
0
LINE
8
0
10
67
20
27
11
67
21
45
0
LINE
8
0
10
67
20
64
11
85
21
64
0
LINE
8
0
10
85
20
64
11
85
21
46
0
LINE
8
0
10
85
20
46
11
67
21
46
0
LINE
8
0
10
67
20
46
11
67
21
64
0
LINE
8
0
10
86
20
24
11
104
21
24
0
LINE
8
0
10
104
20
24
11
104
21
6
0
LINE
8
0
10
104
20
6
11
86
21
6
0
LINE
8
0
10
86
20
6
11
86
21
24
0
LINE
8
0
10
86
20
43
11
104
21
43
0
LINE
8
0
10
104
20
43
11
104
21
25
0
LINE
8
0
10
104
20
25
11
86
21
25
0
LINE
8
0
10
86
20
25
11
86
21
43
0
LINE
8
0
10
86
20
62
11
104
21
62
0
LINE
8
0
10
104
20
62
11
104
21
44
0
LINE
8
0
10
104
20
44
11
86
21
44
0
LINE
8
0
10
86
20
44
11
86
21
62
0
LINE
8
0
10
62
20
4
11
80
21
4
0
LINE
8
0
10
80
20
4
11
80
21
-14
0
LINE
8
0
10
80
20
-14
11
62
21
-14
0
LINE
8
0
10
62
20
-14
11
62
21
4
0
LINE
8
0
10
86.9487056
20
3.1908334
11
104.5553624
21
-0.551577
0
LINE
8
0
10
104.5553624
20
-0.551577
11
100.812952
21
-18.1582338
0
LINE
8
0
10
100.812952
20
-18.1582338
11
83.2062952
21
-14.4158234
0
LINE
8
0
10
83.2062952
20
-14.4158234
11
86.9487056
21
3.1908334
0
LINE
8
0
10
111.9894785
20
-3.287987
11
128.0275959
21
-11.459816
0
LINE
8
0
10
128.0275959
20
-11.459816
11
119.8557669
21
-27.4979334
0
LINE
8
0
10
119.8557669
20
-27.4979334
11
103.8176495
21
-19.3261044
0
LINE
8
0
10
103.8176495
20
-19.3261044
11
111.9894785
21
-3.287987
0
ENDSEC
0
EOF