0
SECTION
2
HEADER
9
$INSUNITS
70
4
0
ENDSEC
0
SECTION
2
TABLES
0
TABLE
2
LTYPE
0
LTYPE
72
65
70
64
2
CONTINUOUS
3
______
73
0
40
0
0
ENDTAB
0
TABLE
2
LAYER
0
ENDTAB
0
ENDSEC
0
SECTION
2
ENTITIES
0
LINE
8
0
10
139
20
-156.5
11
139
21
-108.0022791
0
LINE
8
0
10
141.2501372
20
-104.4053387
11
175.6473576
21
-87.6715558
0
LINE
8
0
10
176.3792472
20
-87.4001981
11
194.4995328
21
-82.6317019
0
LINE
8
0
10
195.517506
20
-82.5
11
213.7450404
21
-82.5
0
LINE
8
0
10
214.2528968
20
-82.5323708
11
273.0073869
21
-90.0529455
0
LINE
8
0
10
276.4995305
20
-94.0211079
11
276.4907227
21
-160.0712541
0
LINE
8
0
10
276.0547488
20
-161.8866829
11
268.7942014
21
-176.1363095
0
LINE
8
0
10
263.3724983
20
-177.8628092
11
248.9449248
21
-170.2969486
0
LINE
8
0
10
247.9188945
20
-169.92682
11
226.9381324
21
-165.4672214
0
LINE
8
0
10
226.9381324
20
-165.4672214
11
227
21
-165.5
0
LINE
8
0
10
227
20
-165.5
11
205.3811238
21
-165.5
0
LINE
8
0
10
204.6257341
20
-165.4280258
11
179.3742659
21
-160.5719742
0
LINE
8
0
10
178.6188762
20
-160.5
11
143
21
-160.5
0
ARC
8
0
10
143
20
-108.0022791
40
4
50
115.9422942
51
180
0
ARC
8
0
10
177.3972204
20
-91.2684962
40
4
50
104.7435634
51
115.9422942
0
ARC
8
0
10
195.517506
20
-86.5
40
4
50
90
51
104.7435634
0
ARC
8
0
10
213.7450404
20
-86.5
40
4
50
82.7058056
51
90
0
ARC
8
0
10
272.4995305
20
-94.0205747
40
4
50
359.9923625
51
82.7058056
0
ARC
8
0
10
272.4907227
20
-160.0707209
40
4
50
332.9999994
51
359.9923625
0
ARC
8
0
10
265.2301754
20
-174.3203474
40
4
50
242.3273549
51
332.9999994
0
ARC
8
0
10
247.0872477
20
-173.8394104
40
4
50
62.3273549
51
77.9999995
0
ARC
8
0
10
205.3811238
20
-161.5
40
4
50
259.1144721
51
270
0
ARC
8
0
10
178.6188762
20
-164.5
40
4
50
79.1144721
51
90
0
ARC
8
0
10
143
20
-156.5
40
4
50
180
51
270
0
LINE
8
0
10
141.25
20
-158.25
11
158.75
21
-158.25
0
LINE
8
0
10
158.75
20
-158.25
11
158.75
21
-141.75
0
LINE
8
0
10
158.75
20
-141.75
11
141.25
21
-141.75
0
LINE
8
0
10
141.25
20
-141.75
11
141.25
21
-158.25
0
LINE
8
0
10
141.25
20
-141.25
11
158.75
21
-141.25
0
LINE
8
0
10
158.75
20
-141.25
11
158.75
21
-124.75
0
LINE
8
0
10
158.75
20
-124.75
11
141.25
21
-124.75
0
LINE
8
0
10
141.25
20
-124.75
11
141.25
21
-141.25
0
LINE
8
0
10
141.25
20
-124.25
11
158.75
21
-124.25
0
LINE
8
0
10
158.75
20
-124.25
11
158.75
21
-107.75
0
LINE
8
0
10
158.75
20
-107.75
11
141.25
21
-107.75
0
LINE
8
0
10
141.25
20
-107.75
11
141.25
21
-124.25
0
LINE
8
0
10
159.25
20
-158.25
11
176.75
21
-158.25
0
LINE
8
0
10
176.75
20
-158.25
11
176.75
21
-141.75
0
LINE
8
0
10
176.75
20
-141.75
11
159.25
21
-141.75
0
LINE
8
0
10
159.25
20
-141.75
11
159.25
21
-158.25
0
LINE
8
0
10
159.25
20
-141.25
11
176.75
21
-141.25
0
LINE
8
0
10
176.75
20
-141.25
11
176.75
21
-124.75
0
LINE
8
0
10
176.75
20
-124.75
11
159.25
21
-124.75
0
LINE
8
0
10
159.25
20
-124.75
11
159.25
21
-141.25
0
LINE
8
0
10
159.25
20
-124.25
11
176.75
21
-124.25
0
LINE
8
0
10
176.75
20
-124.25
11
176.75
21
-107.75
0
LINE
8
0
10
176.75
20
-107.75
11
159.25
21
-107.75
0
LINE
8
0
10
159.25
20
-107.75
11
159.25
21
-124.25
0
LINE
8
0
10
177.25
20
-140.25
11
194.75
21
-140.25
0
LINE
8
0
10
194.75
20
-140.25
11
194.75
21
-123.75
0
LINE
8
0
10
194.75
20
-123.75
11
177.25
21
-123.75
0
LINE
8
0
10
177.25
20
-123.75
11
177.25
21
-140.25
0
LINE
8
0
10
177.25
20
-123.25
11
194.75
21
-123.25
0
LINE
8
0
10
194.75
20
-123.25
11
194.75
21
-106.75
0
LINE
8
0
10
194.75
20
-106.75
11
177.25
21
-106.75
0
LINE
8
0
10
177.25
20
-106.75
11
177.25
21
-123.25
0
LINE
8
0
10
177.25
20
-106.25
11
194.75
21
-106.25
0
LINE
8
0
10
194.75
20
-106.25
11
194.75
21
-89.75
0
LINE
8
0
10
194.75
20
-89.75
11
177.25
21
-89.75
0
LINE
8
0
10
177.25
20
-89.75
11
177.25
21
-106.25
0
LINE
8
0
10
195.25
20
-135.25
11
212.75
21
-135.25
0
LINE
8
0
10
212.75
20
-135.25
11
212.75
21
-118.75
0
LINE
8
0
10
212.75
20
-118.75
11
195.25
21
-118.75
0
LINE
8
0
10
195.25
20
-118.75
11
195.25
21
-135.25
0
LINE
8
0
10
195.25
20
-118.25
11
212.75
21
-118.25
0
LINE
8
0
10
212.75
20
-118.25
11
212.75
21
-101.75
0
LINE
8
0
10
212.75
20
-101.75
11
195.25
21
-101.75
0
LINE
8
0
10
195.25
20
-101.75
11
195.25
21
-118.25
0
LINE
8
0
10
195.25
20
-101.25
11
212.75
21
-101.25
0
LINE
8
0
10
212.75
20
-101.25
11
212.75
21
-84.75
0
LINE
8
0
10
212.75
20
-84.75
11
195.25
21
-84.75
0
LINE
8
0
10
195.25
20
-84.75
11
195.25
21
-101.25
0
LINE
8
0
10
213.25
20
-141.25
11
230.75
21
-141.25
0
LINE
8
0
10
230.75
20
-141.25
11
230.75
21
-124.75
0
LINE
8
0
10
230.75
20
-124.75
11
213.25
21
-124.75
0
LINE
8
0
10
213.25
20
-124.75
11
213.25
21
-141.25
0
LINE
8
0
10
213.25
20
-124.25
11
230.75
21
-124.25
0
LINE
8
0
10
230.75
20
-124.25
11
230.75
21
-107.75
0
LINE
8
0
10
230.75
20
-107.75
11
213.25
21
-107.75
0
LINE
8
0
10
213.25
20
-107.75
11
213.25
21
-124.25
0
LINE
8
0
10
213.25
20
-107.25
11
230.75
21
-107.25
0
LINE
8
0
10
230.75
20
-107.25
11
230.75
21
-90.75
0
LINE
8
0
10
230.75
20
-90.75
11
213.25
21
-90.75
0
LINE
8
0
10
213.25
20
-90.75
11
213.25
21
-107.25
0
LINE
8
0
10
231.25
20
-143.25
11
248.75
21
-143.25
0
LINE
8
0
10
248.75
20
-143.25
11
248.75
21
-126.75
0
LINE
8
0
10
248.75
20
-126.75
11
231.25
21
-126.75
0
LINE
8
0
10
231.25
20
-126.75
11
231.25
21
-143.25
0
LINE
8
0
10
231.25
20
-126.25
11
248.75
21
-126.25
0
LINE
8
0
10
248.75
20
-126.25
11
248.75
21
-109.75
0
LINE
8
0
10
248.75
20
-109.75
11
231.25
21
-109.75
0
LINE
8
0
10
231.25
20
-109.75
11
231.25
21
-126.25
0
LINE
8
0
10
231.25
20
-109.25
11
248.75
21
-109.25
0
LINE
8
0
10
248.75
20
-109.25
11
248.75
21
-92.75
0
LINE
8
0
10
248.75
20
-92.75
11
231.25
21
-92.75
0
LINE
8
0
10
231.25
20
-92.75
11
231.25
21
-109.25
0
LINE
8
0
10
207.25
20
-163.25
11
224.75
21
-163.25
0
LINE
8
0
10
224.75
20
-163.25
11
224.75
21
-146.75
0
LINE
8
0
10
224.75
20
-146.75
11
207.25
21
-146.75
0
LINE
8
0
10
207.25
20
-146.75
11
207.25
21
-163.25
0
LINE
8
0
10
229.6067658
20
-163.7341906
11
246.7243489
21
-167.3726452
0
LINE
8
0
10
246.7243489
20
-167.3726452
11
250.1548918
21
-151.2332098
0
LINE
8
0
10
250.1548918
20
-151.2332098
11
233.0373087
21
-147.5947552
0
LINE
8
0
10
233.0373087
20
-147.5947552
11
229.6067658
21
-163.7341906
0
LINE
8
0
10
250.380894
20
-168.7713472
11
265.9735082
21
-176.7161809
0
LINE
8
0
10
265.9735082
20
-176.7161809
11
273.4643514
21
-162.0145732
0
LINE
8
0
10
273.4643514
20
-162.0145732
11
257.8717372
21
-154.0697395
0
LINE
8
0
10
257.8717372
20
-154.0697395
11
250.380894
21
-168.7713472
0
ENDSEC
0
EOF