0
SECTION
2
HEADER
9
$INSUNITS
70
4
0
ENDSEC
0
SECTION
2
TABLES
0
TABLE
2
LTYPE
0
LTYPE
72
65
70
64
2
CONTINUOUS
3
______
73
0
40
0
0
ENDTAB
0
TABLE
2
LAYER
0
ENDTAB
0
ENDSEC
0
SECTION
2
ENTITIES
0
LINE
8
0
10
141.25
20
-158.25
11
158.75
21
-158.25
0
LINE
8
0
10
158.75
20
-158.25
11
158.75
21
-141.75
0
LINE
8
0
10
158.75
20
-141.75
11
141.25
21
-141.75
0
LINE
8
0
10
141.25
20
-141.75
11
141.25
21
-158.25
0
LINE
8
0
10
141.25
20
-141.25
11
158.75
21
-141.25
0
LINE
8
0
10
158.75
20
-141.25
11
158.75
21
-124.75
0
LINE
8
0
10
158.75
20
-124.75
11
141.25
21
-124.75
0
LINE
8
0
10
141.25
20
-124.75
11
141.25
21
-141.25
0
LINE
8
0
10
141.25
20
-124.25
11
158.75
21
-124.25
0
LINE
8
0
10
158.75
20
-124.25
11
158.75
21
-107.75
0
LINE
8
0
10
158.75
20
-107.75
11
141.25
21
-107.75
0
LINE
8
0
10
141.25
20
-107.75
11
141.25
21
-124.25
0
LINE
8
0
10
159.25
20
-158.25
11
176.75
21
-158.25
0
LINE
8
0
10
176.75
20
-158.25
11
176.75
21
-141.75
0
LINE
8
0
10
176.75
20
-141.75
11
159.25
21
-141.75
0
LINE
8
0
10
159.25
20
-141.75
11
159.25
21
-158.25
0
LINE
8
0
10
159.25
20
-141.25
11
176.75
21
-141.25
0
LINE
8
0
10
176.75
20
-141.25
11
176.75
21
-124.75
0
LINE
8
0
10
176.75
20
-124.75
11
159.25
21
-124.75
0
LINE
8
0
10
159.25
20
-124.75
11
159.25
21
-141.25
0
LINE
8
0
10
159.25
20
-124.25
11
176.75
21
-124.25
0
LINE
8
0
10
176.75
20
-124.25
11
176.75
21
-107.75
0
LINE
8
0
10
176.75
20
-107.75
11
159.25
21
-107.75
0
LINE
8
0
10
159.25
20
-107.75
11
159.25
21
-124.25
0
LINE
8
0
10
177.25
20
-140.25
11
194.75
21
-140.25
0
LINE
8
0
10
194.75
20
-140.25
11
194.75
21
-123.75
0
LINE
8
0
10
194.75
20
-123.75
11
177.25
21
-123.75
0
LINE
8
0
10
177.25
20
-123.75
11
177.25
21
-140.25
0
LINE
8
0
10
177.25
20
-123.25
11
194.75
21
-123.25
0
LINE
8
0
10
194.75
20
-123.25
11
194.75
21
-106.75
0
LINE
8
0
10
194.75
20
-106.75
11
177.25
21
-106.75
0
LINE
8
0
10
177.25
20
-106.75
11
177.25
21
-123.25
0
LINE
8
0
10
177.25
20
-106.25
11
194.75
21
-106.25
0
LINE
8
0
10
194.75
20
-106.25
11
194.75
21
-89.75
0
LINE
8
0
10
194.75
20
-89.75
11
177.25
21
-89.75
0
LINE
8
0
10
177.25
20
-89.75
11
177.25
21
-106.25
0
LINE
8
0
10
195.25
20
-135.25
11
212.75
21
-135.25
0
LINE
8
0
10
212.75
20
-135.25
11
212.75
21
-118.75
0
LINE
8
0
10
212.75
20
-118.75
11
195.25
21
-118.75
0
LINE
8
0
10
195.25
20
-118.75
11
195.25
21
-135.25
0
LINE
8
0
10
195.25
20
-118.25
11
212.75
21
-118.25
0
LINE
8
0
10
212.75
20
-118.25
11
212.75
21
-101.75
0
LINE
8
0
10
212.75
20
-101.75
11
195.25
21
-101.75
0
LINE
8
0
10
195.25
20
-101.75
11
195.25
21
-118.25
0
LINE
8
0
10
195.25
20
-101.25
11
212.75
21
-101.25
0
LINE
8
0
10
212.75
20
-101.25
11
212.75
21
-84.75
0
LINE
8
0
10
212.75
20
-84.75
11
195.25
21
-84.75
0
LINE
8
0
10
195.25
20
-84.75
11
195.25
21
-101.25
0
LINE
8
0
10
213.25
20
-141.25
11
230.75
21
-141.25
0
LINE
8
0
10
230.75
20
-141.25
11
230.75
21
-124.75
0
LINE
8
0
10
230.75
20
-124.75
11
213.25
21
-124.75
0
LINE
8
0
10
213.25
20
-124.75
11
213.25
21
-141.25
0
LINE
8
0
10
213.25
20
-124.25
11
230.75
21
-124.25
0
LINE
8
0
10
230.75
20
-124.25
11
230.75
21
-107.75
0
LINE
8
0
10
230.75
20
-107.75
11
213.25
21
-107.75
0
LINE
8
0
10
213.25
20
-107.75
11
213.25
21
-124.25
0
LINE
8
0
10
213.25
20
-107.25
11
230.75
21
-107.25
0
LINE
8
0
10
230.75
20
-107.25
11
230.75
21
-90.75
0
LINE
8
0
10
230.75
20
-90.75
11
213.25
21
-90.75
0
LINE
8
0
10
213.25
20
-90.75
11
213.25
21
-107.25
0
LINE
8
0
10
231.25
20
-143.25
11
248.75
21
-143.25
0
LINE
8
0
10
248.75
20
-143.25
11
248.75
21
-126.75
0
LINE
8
0
10
248.75
20
-126.75
11
231.25
21
-126.75
0
LINE
8
0
10
231.25
20
-126.75
11
231.25
21
-143.25
0
LINE
8
0
10
231.25
20
-126.25
11
248.75
21
-126.25
0
LINE
8
0
10
248.75
20
-126.25
11
248.75
21
-109.75
0
LINE
8
0
10
248.75
20
-109.75
11
231.25
21
-109.75
0
LINE
8
0
10
231.25
20
-109.75
11
231.25
21
-126.25
0
LINE
8
0
10
231.25
20
-109.25
11
248.75
21
-109.25
0
LINE
8
0
10
248.75
20
-109.25
11
248.75
21
-92.75
0
LINE
8
0
10
248.75
20
-92.75
11
231.25
21
-92.75
0
LINE
8
0
10
231.25
20
-92.75
11
231.25
21
-109.25
0
LINE
8
0
10
207.25
20
-163.25
11
224.75
21
-163.25
0
LINE
8
0
10
224.75
20
-163.25
11
224.75
21
-146.75
0
LINE
8
0
10
224.75
20
-146.75
11
207.25
21
-146.75
0
LINE
8
0
10
207.25
20
-146.75
11
207.25
21
-163.25
0
LINE
8
0
10
229.6067658
20
-163.7341906
11
246.7243489
21
-167.3726452
0
LINE
8
0
10
246.7243489
20
-167.3726452
11
250.1548918
21
-151.2332098
0
LINE
8
0
10
250.1548918
20
-151.2332098
11
233.0373087
21
-147.5947552
0
LINE
8
0
10
233.0373087
20
-147.5947552
11
229.6067658
21
-163.7341906
0
LINE
8
0
10
250.380894
20
-168.7713472
11
265.9735082
21
-176.7161809
0
LINE
8
0
10
265.9735082
20
-176.7161809
11
273.4643514
21
-162.0145732
0
LINE
8
0
10
273.4643514
20
-162.0145732
11
257.8717372
21
-154.0697395
0
LINE
8
0
10
257.8717372
20
-154.0697395
11
250.380894
21
-168.7713472
0
ENDSEC
0
EOF