0
SECTION
2
HEADER
9
$INSUNITS
70
4
0
ENDSEC
0
SECTION
2
TABLES
0
TABLE
2
LTYPE
0
LTYPE
72
65
70
64
2
CONTINUOUS
3
______
73
0
40
0
0
ENDTAB
0
TABLE
2
LAYER
0
ENDTAB
0
ENDSEC
0
SECTION
2
ENTITIES
0
LINE
8
0
10
139
20
-160.5
11
179
21
-160.5
0
LINE
8
0
10
139
20
-160.5
11
139
21
-105.5
0
LINE
8
0
10
139
20
-105.5
11
175
21
-105.5
0
LINE
8
0
10
179
20
-160.5
11
179
21
-142.5
0
LINE
8
0
10
179
20
-142.5
11
197
21
-142.5
0
LINE
8
0
10
197
20
-142.5
11
197
21
-137.5
0
LINE
8
0
10
175
20
-105.5
11
175
21
-87.5
0
LINE
8
0
10
175
20
-87.5
11
193
21
-87.5
0
LINE
8
0
10
197
20
-137.5
11
211
21
-137.5
0
LINE
8
0
10
215
20
-88.5
11
215
21
-82.5
0
LINE
8
0
10
215
20
-82.5
11
193
21
-82.5
0
LINE
8
0
10
193
20
-82.5
11
193
21
-87.5
0
LINE
8
0
10
211
20
-143.5
11
229
21
-143.5
0
LINE
8
0
10
211
20
-137.5
11
211
21
-143.5
0
LINE
8
0
10
233
20
-90.5
11
233
21
-88.5
0
LINE
8
0
10
215
20
-88.5
11
233
21
-88.5
0
LINE
8
0
10
229
20
-145.5
11
231.1822963
21
-145.5
0
LINE
8
0
10
234.0041626
20
-145.5
11
251
21
-145.5
0
LINE
8
0
10
251
20
-145.5
11
251
21
-90.5
0
LINE
8
0
10
229
20
-143.5
11
229
21
-145.5
0
LINE
8
0
10
233
20
-90.5
11
251
21
-90.5
0
LINE
8
0
10
205
20
-165.5
11
227
21
-165.5
0
LINE
8
0
10
227
20
-165.5
11
227
21
-165.4803718
0
LINE
8
0
10
227
20
-165.1761572
11
227
21
-144.5
0
LINE
8
0
10
227
20
-144.5
11
205
21
-144.5
0
LINE
8
0
10
205
20
-144.5
11
205
21
-165.5
0
LINE
8
0
10
227
20
-165.4803718
11
247.5306055
21
-169.8442867
0
LINE
8
0
10
249.3512
20
-165.8361845
11
252.8235252
21
-149.500179
0
LINE
8
0
10
252.8235252
20
-149.500179
11
234.0041626
21
-145.5
0
LINE
8
0
10
231.1822963
20
-145.5
11
227
21
-165.1761572
0
LINE
8
0
10
247.5306055
20
-169.8442867
11
266.9567942
21
-179.7424242
0
LINE
8
0
10
266.9567942
20
-179.7424242
11
276.4905947
21
-161.0312872
0
LINE
8
0
10
276.4905947
20
-161.0312872
11
256.8884512
21
-151.0434962
0
LINE
8
0
10
256.8884512
20
-151.0434962
11
249.3512
21
-165.8361845
0
ENDSEC
0
EOF